<svg xmlns="http://www.w3.org/2000/svg" width="116" height="64.536" viewBox="0 0 116 64.536">
  <g id="Sure_Logo-01" data-name="Sure Logo-01" transform="translate(-10.15 -8.29)">
    <path id="Path_70082" data-name="Path 70082" d="M25.352,75.681c-11.969-2.051-1.681-11.4,5.929-3.609a.616.616,0,0,0,.813.056l4.169-3.076a.611.611,0,0,0,.14-.846c-1.166-1.608-5.458-6.494-14.278-5.441-10.529,1.25-10.282,8.764-10.282,8.764s-1.384,8.921,13.785,11.582c10.26,1.53-.062,13.3-10.137,2.718a.628.628,0,0,0-.829-.078L10.4,88.9a.611.611,0,0,0-.168.79c.936,1.681,4.685,7.021,14.1,7.021,11.145,0,13.645-6.892,13.712-10.26S36.4,78.135,25.352,75.681Z" transform="translate(0 -23.885)"/>
    <path id="Path_70083" data-name="Path 70083" d="M92.995,64.241l-6.551,1.788a.622.622,0,0,0-.459.6V82.845c0,2.309,0,6.853-6.192,6.853s-6.125-4.556-6.125-6.853V64.757a.611.611,0,0,0-.773-.594l-6.556,1.793a.622.622,0,0,0-.459.6V82.845s-.375,14.5,13.9,14.5,14.009-14.5,14.009-14.5v-18a.616.616,0,0,0-.8-.6Z" transform="translate(-24.393 -24.555)"/>
    <path id="Path_70084" data-name="Path 70084" d="M145.606,64.239l-13.275,4.152v-3.53a.611.611,0,0,0-.79-.588l-6.831,2.062V77.973l21.26-6.528a.616.616,0,0,0,.431-.588V64.827a.616.616,0,0,0-.8-.588Z" transform="translate(-50.159 -24.586)" fill="#002eff"/>
    <path id="Path_70085" data-name="Path 70085" d="M124.7,108.647a.751.751,0,0,0,.745.751h6.147a.751.751,0,0,0,.751-.751V91.73l-7.638,2.337Z" transform="translate(-50.181 -36.684)"/>
    <path id="Path_70086" data-name="Path 70086" d="M194.734,77.255v-.426A14.147,14.147,0,0,0,181.179,62.6,13.953,13.953,0,0,0,166.84,76.537v5.895a14.147,14.147,0,0,0,13.555,14.233,13.942,13.942,0,0,0,14.339-13.953V82.55a.616.616,0,0,0-.8-.56L187.1,84.057a.605.605,0,0,0-.431.51c-.258,2.544-3.043,4.449-5.861,4.449-3.065,0-6.164-2.1-6.164-5.172l19.668-6A.616.616,0,0,0,194.734,77.255Zm-13.947-6.993a6.164,6.164,0,0,1,5.721,3.871l-11.879,3.626V76.414a6.164,6.164,0,0,1,6.158-6.153Z" transform="translate(-68.585 -23.873)"/>
    <path id="Path_70087" data-name="Path 70087" d="M17.675,18.627c0-.269-.219-.459-.437-.381l-3.116.9a.667.667,0,0,0-.392.639v6.887h0v4.348a3.816,3.816,0,0,1-.5,2.241,2.476,2.476,0,0,1-1.866.56h-.275a.8.8,0,0,0-.8.8v1.978a.8.8,0,0,0,.8.8h.476a7.9,7.9,0,0,0,2.936-.476,4.651,4.651,0,0,0,1.95-1.44,5.094,5.094,0,0,0,.964-2.062,11.353,11.353,0,0,0,.263-2.421V19.54h0Z" transform="translate(-0.062 -4.369)"/>
    <path id="Path_70088" data-name="Path 70088" d="M76.517,21.808l-3.188.986a.392.392,0,0,0-.28.381V28.74H68.817V22.184a.392.392,0,0,0-.516-.375l-3.188.986a.392.392,0,0,0-.28.381V28.74H60.6V22.184a.4.4,0,0,0-.516-.375l-3.194.986a.392.392,0,0,0-.28.381V28.74H40.671V19.158a.807.807,0,0,0-.74-.8,17.069,17.069,0,0,0-1.731-.14H36.4a13.067,13.067,0,0,0-3.8.409A7.329,7.329,0,0,0,29.9,20.1,6,6,0,0,0,28.3,22.4a7.845,7.845,0,0,0-.5,2.863,9.526,9.526,0,0,0,.286,2.241,5.772,5.772,0,0,0,1.182,2.325,6.545,6.545,0,0,0,2.454,1.76,10.21,10.21,0,0,0,4,.672H36.6a2.085,2.085,0,0,1-.56,1.121,2.936,2.936,0,0,1-2.006.56h-3.48a.8.8,0,0,0-.8.8v1.838a.8.8,0,0,0,.8.8h3.525A9.828,9.828,0,0,0,37,37a5.228,5.228,0,0,0,2.062-1.182,4.769,4.769,0,0,0,1.177-1.933,7.907,7.907,0,0,0,.353-1.631H77.043V22.167a.392.392,0,0,0-.527-.359Zm-39.785-.252V28.74h-.784a8.1,8.1,0,0,1-1.872-.224,3.323,3.323,0,0,1-1.272-.56,2.37,2.37,0,0,1-.768-1,4.214,4.214,0,0,1-.286-1.681,4.085,4.085,0,0,1,.426-2.079,2.852,2.852,0,0,1,1.076-1.07,3.81,3.81,0,0,1,1.485-.465,15.746,15.746,0,0,1,1.72-.1Z" transform="translate(-7.759 -4.362)"/>
    <rect id="Rectangle_11634" data-name="Rectangle 11634" width="2.83" height="2.83" rx="1.33" transform="translate(55.048 12.397)"/>
    <rect id="Rectangle_11635" data-name="Rectangle 11635" width="2.83" height="2.83" rx="1.33" transform="translate(60.313 12.397)"/>
    <rect id="Rectangle_11636" data-name="Rectangle 11636" width="2.83" height="2.83" rx="1.33" transform="translate(57.638 8.29)"/>
  </g>
</svg>
